<mxfile host="app.diagrams.net" modified="2023-12-28T08:53:48.670Z" agent="Mozilla/5.0 (X11; Linux x86_64) AppleWebKit/537.36 (KHTML, like Gecko) Chrome/118.0.0.0 Safari/537.36" etag="e2_Yg3bWYIrlc-Tlkupz" version="22.1.15" type="github">
  <diagram name="Page-1" id="hJpLVe-ykgocNOG8tgAQ">
    <mxGraphModel dx="989" dy="554" grid="1" gridSize="10" guides="1" tooltips="1" connect="1" arrows="1" fold="1" page="1" pageScale="1" pageWidth="827" pageHeight="1169" math="0" shadow="0">
      <root>
        <mxCell id="0" />
        <mxCell id="1" parent="0" />
        <mxCell id="NDeyMPlmd33Ptdxb1h3B-1" value="主界面" style="rounded=0;whiteSpace=wrap;html=1;" vertex="1" parent="1">
          <mxGeometry x="360" y="400" width="80" height="40" as="geometry" />
        </mxCell>
        <mxCell id="NDeyMPlmd33Ptdxb1h3B-2" value="" style="endArrow=classic;html=1;rounded=0;exitX=0.5;exitY=0;exitDx=0;exitDy=0;" edge="1" parent="1" source="NDeyMPlmd33Ptdxb1h3B-1">
          <mxGeometry width="50" height="50" relative="1" as="geometry">
            <mxPoint x="360" y="370" as="sourcePoint" />
            <mxPoint x="400" y="360" as="targetPoint" />
          </mxGeometry>
        </mxCell>
        <mxCell id="NDeyMPlmd33Ptdxb1h3B-13" value="F1" style="edgeLabel;html=1;align=left;verticalAlign=middle;resizable=0;points=[];" vertex="1" connectable="0" parent="NDeyMPlmd33Ptdxb1h3B-2">
          <mxGeometry x="-0.05" relative="1" as="geometry">
            <mxPoint as="offset" />
          </mxGeometry>
        </mxCell>
        <mxCell id="NDeyMPlmd33Ptdxb1h3B-3" value="隧道信息" style="rounded=0;whiteSpace=wrap;html=1;" vertex="1" parent="1">
          <mxGeometry x="360" y="320" width="80" height="40" as="geometry" />
        </mxCell>
        <mxCell id="NDeyMPlmd33Ptdxb1h3B-4" value="" style="endArrow=classic;startArrow=classic;html=1;rounded=0;" edge="1" parent="1">
          <mxGeometry width="50" height="50" relative="1" as="geometry">
            <mxPoint x="400" y="320" as="sourcePoint" />
            <mxPoint x="400" y="240" as="targetPoint" />
          </mxGeometry>
        </mxCell>
        <mxCell id="NDeyMPlmd33Ptdxb1h3B-6" value="查询、&lt;br&gt;添加、&lt;br&gt;修改、&lt;br&gt;删除&amp;nbsp; &amp;nbsp;" style="edgeLabel;html=1;align=left;verticalAlign=middle;resizable=0;points=[];" vertex="1" connectable="0" parent="NDeyMPlmd33Ptdxb1h3B-4">
          <mxGeometry x="0.0607" y="1" relative="1" as="geometry">
            <mxPoint as="offset" />
          </mxGeometry>
        </mxCell>
        <mxCell id="NDeyMPlmd33Ptdxb1h3B-5" value="TunnelInfo表" style="shape=partialRectangle;whiteSpace=wrap;html=1;left=0;right=0;fillColor=none;" vertex="1" parent="1">
          <mxGeometry x="360" y="200" width="80" height="40" as="geometry" />
        </mxCell>
        <mxCell id="NDeyMPlmd33Ptdxb1h3B-7" value="" style="endArrow=classic;html=1;rounded=0;exitX=0.5;exitY=1;exitDx=0;exitDy=0;" edge="1" parent="1" source="NDeyMPlmd33Ptdxb1h3B-1">
          <mxGeometry width="50" height="50" relative="1" as="geometry">
            <mxPoint x="520" y="440" as="sourcePoint" />
            <mxPoint x="400" y="480" as="targetPoint" />
          </mxGeometry>
        </mxCell>
        <mxCell id="NDeyMPlmd33Ptdxb1h3B-14" value="F2" style="edgeLabel;html=1;align=left;verticalAlign=middle;resizable=0;points=[];" vertex="1" connectable="0" parent="NDeyMPlmd33Ptdxb1h3B-7">
          <mxGeometry x="-0.15" y="2" relative="1" as="geometry">
            <mxPoint x="-2" as="offset" />
          </mxGeometry>
        </mxCell>
        <mxCell id="NDeyMPlmd33Ptdxb1h3B-8" value="管理员信息" style="rounded=0;whiteSpace=wrap;html=1;" vertex="1" parent="1">
          <mxGeometry x="360" y="480" width="80" height="40" as="geometry" />
        </mxCell>
        <mxCell id="NDeyMPlmd33Ptdxb1h3B-10" value="User表" style="shape=partialRectangle;whiteSpace=wrap;html=1;left=0;right=0;fillColor=none;" vertex="1" parent="1">
          <mxGeometry x="360" y="560" width="80" height="40" as="geometry" />
        </mxCell>
        <mxCell id="NDeyMPlmd33Ptdxb1h3B-11" value="" style="endArrow=classic;startArrow=classic;html=1;rounded=0;exitX=0.5;exitY=0;exitDx=0;exitDy=0;" edge="1" parent="1" source="NDeyMPlmd33Ptdxb1h3B-10">
          <mxGeometry width="50" height="50" relative="1" as="geometry">
            <mxPoint x="350" y="570" as="sourcePoint" />
            <mxPoint x="400" y="520" as="targetPoint" />
          </mxGeometry>
        </mxCell>
        <mxCell id="NDeyMPlmd33Ptdxb1h3B-12" value="修改" style="edgeLabel;html=1;align=left;verticalAlign=middle;resizable=0;points=[];" vertex="1" connectable="0" parent="NDeyMPlmd33Ptdxb1h3B-11">
          <mxGeometry x="0.0643" y="-2" relative="1" as="geometry">
            <mxPoint as="offset" />
          </mxGeometry>
        </mxCell>
        <mxCell id="NDeyMPlmd33Ptdxb1h3B-15" value="养护信息" style="rounded=0;whiteSpace=wrap;html=1;" vertex="1" parent="1">
          <mxGeometry x="480" y="400" width="80" height="40" as="geometry" />
        </mxCell>
        <mxCell id="NDeyMPlmd33Ptdxb1h3B-16" value="" style="endArrow=classic;html=1;rounded=0;entryX=0;entryY=0.5;entryDx=0;entryDy=0;" edge="1" parent="1" target="NDeyMPlmd33Ptdxb1h3B-15">
          <mxGeometry width="50" height="50" relative="1" as="geometry">
            <mxPoint x="440" y="420" as="sourcePoint" />
            <mxPoint x="490" y="370" as="targetPoint" />
          </mxGeometry>
        </mxCell>
        <mxCell id="NDeyMPlmd33Ptdxb1h3B-17" value="F3" style="edgeLabel;html=1;align=center;verticalAlign=bottom;resizable=0;points=[];" vertex="1" connectable="0" parent="NDeyMPlmd33Ptdxb1h3B-16">
          <mxGeometry x="-0.35" relative="1" as="geometry">
            <mxPoint as="offset" />
          </mxGeometry>
        </mxCell>
        <mxCell id="NDeyMPlmd33Ptdxb1h3B-18" value="MaintainInfo表" style="shape=partialRectangle;whiteSpace=wrap;html=1;left=0;right=0;fillColor=none;" vertex="1" parent="1">
          <mxGeometry x="600" y="480" width="90" height="40" as="geometry" />
        </mxCell>
        <mxCell id="NDeyMPlmd33Ptdxb1h3B-21" value="" style="endArrow=classic;html=1;rounded=0;entryX=1;entryY=0.5;entryDx=0;entryDy=0;" edge="1" parent="1" target="NDeyMPlmd33Ptdxb1h3B-15">
          <mxGeometry width="50" height="50" relative="1" as="geometry">
            <mxPoint x="640" y="420" as="sourcePoint" />
            <mxPoint x="650" y="420" as="targetPoint" />
          </mxGeometry>
        </mxCell>
        <mxCell id="NDeyMPlmd33Ptdxb1h3B-23" value="查询、添加、&lt;br&gt;修改、删除&amp;nbsp; &amp;nbsp;" style="edgeLabel;html=1;align=center;verticalAlign=bottom;resizable=0;points=[];" vertex="1" connectable="0" parent="NDeyMPlmd33Ptdxb1h3B-21">
          <mxGeometry x="0.0464" y="-1" relative="1" as="geometry">
            <mxPoint x="5" as="offset" />
          </mxGeometry>
        </mxCell>
        <mxCell id="NDeyMPlmd33Ptdxb1h3B-22" value="" style="endArrow=classic;html=1;rounded=0;entryX=0.444;entryY=0;entryDx=0;entryDy=0;entryPerimeter=0;" edge="1" parent="1" target="NDeyMPlmd33Ptdxb1h3B-18">
          <mxGeometry width="50" height="50" relative="1" as="geometry">
            <mxPoint x="640" y="420" as="sourcePoint" />
            <mxPoint x="760" y="390" as="targetPoint" />
          </mxGeometry>
        </mxCell>
        <mxCell id="NDeyMPlmd33Ptdxb1h3B-24" value="管理员" style="rounded=0;whiteSpace=wrap;html=1;direction=south;align=center;" vertex="1" parent="1">
          <mxGeometry x="40" y="360" width="40" height="120" as="geometry" />
        </mxCell>
        <mxCell id="NDeyMPlmd33Ptdxb1h3B-25" value="" style="endArrow=classic;html=1;rounded=0;" edge="1" parent="1">
          <mxGeometry width="50" height="50" relative="1" as="geometry">
            <mxPoint x="80" y="420" as="sourcePoint" />
            <mxPoint x="120" y="420" as="targetPoint" />
          </mxGeometry>
        </mxCell>
        <mxCell id="NDeyMPlmd33Ptdxb1h3B-26" value="输入用户名、&lt;br&gt;密码" style="ellipse;whiteSpace=wrap;html=1;aspect=fixed;" vertex="1" parent="1">
          <mxGeometry x="120" y="380" width="80" height="80" as="geometry" />
        </mxCell>
        <mxCell id="NDeyMPlmd33Ptdxb1h3B-27" value="" style="endArrow=classic;html=1;rounded=0;exitX=1;exitY=0.5;exitDx=0;exitDy=0;" edge="1" parent="1" source="NDeyMPlmd33Ptdxb1h3B-26">
          <mxGeometry width="50" height="50" relative="1" as="geometry">
            <mxPoint x="210" y="430" as="sourcePoint" />
            <mxPoint x="240" y="420" as="targetPoint" />
          </mxGeometry>
        </mxCell>
        <mxCell id="NDeyMPlmd33Ptdxb1h3B-28" value="验证个人信息" style="ellipse;whiteSpace=wrap;html=1;aspect=fixed;" vertex="1" parent="1">
          <mxGeometry x="240" y="380" width="80" height="80" as="geometry" />
        </mxCell>
        <mxCell id="NDeyMPlmd33Ptdxb1h3B-29" value="" style="endArrow=classic;html=1;rounded=0;exitX=1;exitY=0.5;exitDx=0;exitDy=0;entryX=0;entryY=0.5;entryDx=0;entryDy=0;" edge="1" parent="1" source="NDeyMPlmd33Ptdxb1h3B-28" target="NDeyMPlmd33Ptdxb1h3B-1">
          <mxGeometry width="50" height="50" relative="1" as="geometry">
            <mxPoint x="330" y="420" as="sourcePoint" />
            <mxPoint x="380" y="370" as="targetPoint" />
          </mxGeometry>
        </mxCell>
        <mxCell id="NDeyMPlmd33Ptdxb1h3B-31" value="" style="endArrow=none;html=1;rounded=0;entryX=0.5;entryY=1;entryDx=0;entryDy=0;" edge="1" parent="1" target="NDeyMPlmd33Ptdxb1h3B-28">
          <mxGeometry width="50" height="50" relative="1" as="geometry">
            <mxPoint x="280" y="470" as="sourcePoint" />
            <mxPoint x="280" y="500" as="targetPoint" />
          </mxGeometry>
        </mxCell>
        <mxCell id="NDeyMPlmd33Ptdxb1h3B-32" value="" style="endArrow=classic;html=1;rounded=0;" edge="1" parent="1">
          <mxGeometry width="50" height="50" relative="1" as="geometry">
            <mxPoint x="280" y="470" as="sourcePoint" />
            <mxPoint x="80" y="470" as="targetPoint" />
          </mxGeometry>
        </mxCell>
        <mxCell id="NDeyMPlmd33Ptdxb1h3B-33" value="验证失败" style="edgeLabel;html=1;align=center;verticalAlign=top;resizable=0;points=[];" vertex="1" connectable="0" parent="NDeyMPlmd33Ptdxb1h3B-32">
          <mxGeometry x="-0.0214" y="-1" relative="1" as="geometry">
            <mxPoint as="offset" />
          </mxGeometry>
        </mxCell>
      </root>
    </mxGraphModel>
  </diagram>
</mxfile>
